<svg xmlns="http://www.w3.org/2000/svg" width="1584" height="396" viewBox="0 0 1584 396" role="img" aria-label="Vahtian banner"><defs><linearGradient id="bg" x1="0" y1="0" x2="1" y2="1"><stop offset="0" stop-color="#FBFAFE"/><stop offset="1" stop-color="#EDE7F7"/></linearGradient></defs><rect width="1584" height="396" fill="url(#bg)"/><g opacity="0.9"><line x1="718.1" y1="219.8" x2="791.6" y2="257.2" stroke="#8B6FC9" stroke-width="1.39" stroke-opacity="0.16"/><line x1="718.1" y1="219.8" x2="804.2" y2="229.8" stroke="#8B6FC9" stroke-width="1.39" stroke-opacity="0.16"/><line x1="1450.5" y1="185.5" x2="1330.0" y2="156.7" stroke="#8B6FC9" stroke-width="1.39" stroke-opacity="0.16"/><line x1="1450.5" y1="185.5" x2="1503.0" y2="324.5" stroke="#8B6FC9" stroke-width="1.39" stroke-opacity="0.16"/><line x1="804.2" y1="229.8" x2="821.7" y2="249.1" stroke="#8B6FC9" stroke-width="1.39" stroke-opacity="0.16"/><line x1="804.2" y1="229.8" x2="791.6" y2="257.2" stroke="#8B6FC9" stroke-width="1.39" stroke-opacity="0.16"/><line x1="302.5" y1="202.3" x2="311.1" y2="104.0" stroke="#8B6FC9" stroke-width="1.39" stroke-opacity="0.16"/><line x1="302.5" y1="202.3" x2="161.9" y2="126.4" stroke="#8B6FC9" stroke-width="1.39" stroke-opacity="0.16"/><line x1="993.6" y1="304.7" x2="1030.9" y2="240.1" stroke="#8B6FC9" stroke-width="1.39" stroke-opacity="0.16"/><line x1="161.9" y1="126.4" x2="62.5" y2="184.9" stroke="#8B6FC9" stroke-width="1.39" stroke-opacity="0.16"/><line x1="161.9" y1="126.4" x2="260.3" y2="21.3" stroke="#8B6FC9" stroke-width="1.39" stroke-opacity="0.16"/><line x1="156.6" y1="310.8" x2="62.5" y2="184.9" stroke="#8B6FC9" stroke-width="1.39" stroke-opacity="0.16"/><line x1="1092.3" y1="31.1" x2="1205.4" y2="161.7" stroke="#8B6FC9" stroke-width="1.39" stroke-opacity="0.16"/><line x1="1540.5" y1="367.3" x2="1564.5" y2="378.6" stroke="#8B6FC9" stroke-width="1.39" stroke-opacity="0.16"/><line x1="1540.5" y1="367.3" x2="1503.0" y2="324.5" stroke="#8B6FC9" stroke-width="1.39" stroke-opacity="0.16"/><line x1="260.3" y1="21.3" x2="311.1" y2="104.0" stroke="#8B6FC9" stroke-width="1.39" stroke-opacity="0.16"/><line x1="836.1" y1="37.5" x2="725.8" y2="117.2" stroke="#8B6FC9" stroke-width="1.39" stroke-opacity="0.16"/><line x1="62.5" y1="184.9" x2="16.7" y2="92.2" stroke="#8B6FC9" stroke-width="1.39" stroke-opacity="0.16"/><line x1="699.7" y1="322.8" x2="718.1" y2="219.8" stroke="#8B6FC9" stroke-width="1.39" stroke-opacity="0.16"/><line x1="699.7" y1="322.8" x2="791.6" y2="257.2" stroke="#8B6FC9" stroke-width="1.39" stroke-opacity="0.16"/><line x1="821.7" y1="249.1" x2="791.6" y2="257.2" stroke="#8B6FC9" stroke-width="1.39" stroke-opacity="0.16"/><line x1="725.8" y1="117.2" x2="718.1" y2="219.8" stroke="#8B6FC9" stroke-width="1.39" stroke-opacity="0.16"/><line x1="1564.5" y1="378.6" x2="1503.0" y2="324.5" stroke="#8B6FC9" stroke-width="1.39" stroke-opacity="0.16"/><line x1="1320.1" y1="273.7" x2="1330.0" y2="156.7" stroke="#8B6FC9" stroke-width="1.39" stroke-opacity="0.16"/><line x1="1320.1" y1="273.7" x2="1450.5" y2="185.5" stroke="#8B6FC9" stroke-width="1.39" stroke-opacity="0.16"/><line x1="505.3" y1="99.5" x2="464.5" y2="41.4" stroke="#8B6FC9" stroke-width="1.39" stroke-opacity="0.16"/><line x1="464.5" y1="41.4" x2="311.1" y2="104.0" stroke="#8B6FC9" stroke-width="1.39" stroke-opacity="0.16"/><line x1="1205.4" y1="161.7" x2="1330.0" y2="156.7" stroke="#8B6FC9" stroke-width="1.39" stroke-opacity="0.16"/><line x1="1205.4" y1="161.7" x2="1320.1" y2="273.7" stroke="#8B6FC9" stroke-width="1.39" stroke-opacity="0.16"/><line x1="16.7" y1="92.2" x2="161.9" y2="126.4" stroke="#8B6FC9" stroke-width="1.39" stroke-opacity="0.16"/><circle cx="718.1" cy="219.8" r="8.3" fill="none" stroke="#8B6FC9" stroke-width="1.39" stroke-opacity="0.22"/><circle cx="718.1" cy="219.8" r="4.4" fill="#8B6FC9" fill-opacity="0.42"/><circle cx="1450.5" cy="185.5" r="2.7" fill="#C5B8E8" fill-opacity="0.5"/><circle cx="804.2" cy="229.8" r="3.1" fill="#C5B8E8" fill-opacity="0.5"/><circle cx="302.5" cy="202.3" r="2.2" fill="#C5B8E8" fill-opacity="0.5"/><circle cx="993.6" cy="304.7" r="2.7" fill="#C5B8E8" fill-opacity="0.5"/><circle cx="161.9" cy="126.4" r="3.1" fill="#C5B8E8" fill-opacity="0.5"/><circle cx="156.6" cy="310.8" r="2.2" fill="#C5B8E8" fill-opacity="0.5"/><circle cx="1092.3" cy="31.1" r="8.3" fill="none" stroke="#8B6FC9" stroke-width="1.39" stroke-opacity="0.22"/><circle cx="1092.3" cy="31.1" r="4.4" fill="#8B6FC9" fill-opacity="0.42"/><circle cx="1540.5" cy="367.3" r="3.1" fill="#C5B8E8" fill-opacity="0.5"/><circle cx="1030.9" cy="240.1" r="2.2" fill="#C5B8E8" fill-opacity="0.5"/><circle cx="260.3" cy="21.3" r="2.7" fill="#C5B8E8" fill-opacity="0.5"/><circle cx="836.1" cy="37.5" r="3.1" fill="#C5B8E8" fill-opacity="0.5"/><circle cx="311.1" cy="104.0" r="2.2" fill="#C5B8E8" fill-opacity="0.5"/><circle cx="62.5" cy="184.9" r="2.7" fill="#C5B8E8" fill-opacity="0.5"/><circle cx="699.7" cy="322.8" r="8.3" fill="none" stroke="#8B6FC9" stroke-width="1.39" stroke-opacity="0.22"/><circle cx="699.7" cy="322.8" r="4.4" fill="#8B6FC9" fill-opacity="0.42"/><circle cx="821.7" cy="249.1" r="2.2" fill="#C5B8E8" fill-opacity="0.5"/><circle cx="791.6" cy="257.2" r="2.7" fill="#C5B8E8" fill-opacity="0.5"/><circle cx="725.8" cy="117.2" r="3.1" fill="#C5B8E8" fill-opacity="0.5"/><circle cx="1564.5" cy="378.6" r="2.2" fill="#C5B8E8" fill-opacity="0.5"/><circle cx="1320.1" cy="273.7" r="2.7" fill="#C5B8E8" fill-opacity="0.5"/><circle cx="505.3" cy="99.5" r="3.1" fill="#C5B8E8" fill-opacity="0.5"/><circle cx="464.5" cy="41.4" r="8.3" fill="none" stroke="#8B6FC9" stroke-width="1.39" stroke-opacity="0.22"/><circle cx="464.5" cy="41.4" r="4.4" fill="#8B6FC9" fill-opacity="0.42"/><circle cx="1205.4" cy="161.7" r="2.7" fill="#C5B8E8" fill-opacity="0.5"/><circle cx="1330.0" cy="156.7" r="3.1" fill="#C5B8E8" fill-opacity="0.5"/><circle cx="1503.0" cy="324.5" r="2.2" fill="#C5B8E8" fill-opacity="0.5"/><circle cx="16.7" cy="92.2" r="2.7" fill="#C5B8E8" fill-opacity="0.5"/></g><g transform="translate(752.40,75.76) scale(2.4750)"><rect width="32" height="32" rx="7" fill="#2D2440"/><g fill="none" stroke="#8B6FC9" stroke-width="2.3" stroke-linecap="round" stroke-linejoin="round"><path d="M12 9 H9 V23 H12"/><path d="M20 9 H23 V23 H20"/></g><path d="M16 10.3 L19.6 12 L19.6 15 L16 19.6 L12.4 15 L12.4 12 Z" fill="none" stroke="#C5B8E8" stroke-width="1.8" stroke-linejoin="round"/></g><text x="792.0" y="229.5" font-family="Liberation Sans, DejaVu Sans, sans-serif" font-size="54.7" font-weight="700" fill="#1C1830" letter-spacing="-0.5" text-anchor="middle">Make research claims checkable.</text><text x="792.0" y="274.7" font-family="Liberation Sans, DejaVu Sans, sans-serif" font-size="27.4" fill="#5B5570" text-anchor="middle">Citation integrity &amp; biomedical evidence.</text><text x="792.0" y="320.2" font-family="Liberation Mono, DejaVu Sans Mono, monospace" font-size="21.8" font-weight="700" fill="#8B6FC9" text-anchor="middle">vahtian.com</text></svg>