<svg xmlns="http://www.w3.org/2000/svg" width="1584" height="396" viewBox="0 0 1584 396" role="img" aria-label="Vahtian rough field-note banner"><defs><filter id="rough" filterUnits="userSpaceOnUse" x="-100" y="-100" width="4000" height="2400"><feTurbulence type="fractalNoise" baseFrequency="0.018" numOctaves="2" seed="31"/><feDisplacementMap in="SourceGraphic" scale="2.8"/></filter></defs><rect width="1584" height="396" fill="#FAF9FC"/><path d="M0 328.7 C380.2 301.0 839.5 380.2 1584.0 285.1 L1584.0 396.0 L0 396.0 Z" fill="#F1ECF8"/><g filter="url(#rough)" opacity="0.7" fill="none"><path d="M91.7 88.1 C538.6 93.9 1029.6 82.3 1434.1 85.9" stroke="#DDD5EA" stroke-width="2.38" stroke-dasharray="2.9 10.0"/><path d="M104.9 188.5 C538.6 177.3 1029.6 199.7 1486.1 190.0" stroke="#DDD5EA" stroke-width="2.38" stroke-dasharray="2.9 10.0"/><path d="M94.3 303.3 C538.6 301.6 1029.6 304.9 1454.4 302.7" stroke="#DDD5EA" stroke-width="2.38" stroke-dasharray="2.9 10.0"/></g><g filter="url(#rough)" fill="none" stroke-linecap="round" stroke-linejoin="round"><path d="M364.3 243.5 C617.8 91.1 934.6 324.7 1489.0 150.5" stroke="#C5B8E8" stroke-width="3.14" opacity="0.78"/><path d="M364.3 229.7 C601.9 79.2 950.4 308.9 1489.0 138.6" stroke="#6F52B8" stroke-width="6.75" opacity="0.93"/><ellipse cx="570.2" cy="142.6" rx="23.5" ry="21.8" transform="rotate(6.9 570.2 142.6)" stroke="#8B6FC9" stroke-width="2.40"/><ellipse cx="982.1" cy="249.5" rx="32.1" ry="29.7" transform="rotate(-7.5 982.1 249.5)" stroke="#8B6FC9" stroke-width="3.57"/><ellipse cx="1330.6" cy="170.3" rx="19.2" ry="17.8" transform="rotate(-8.7 1330.6 170.3)" stroke="#8B6FC9" stroke-width="1.96"/></g>
    <g transform="translate(475.2,122.8) scale(1.7424)" fill="none"
       stroke-linecap="round" stroke-linejoin="round">
      <path d="M18 31 L50 18 L82 31 L50 44 Z" stroke="#1C1830" stroke-width="4.2"/>
      <path d="M28 35 C30 50 39 57 50 57 C62 57 70 49 72 35" stroke="#5B5570" stroke-width="3.1"/>
      <path d="M82 31 C84 42 81 50 76 55" stroke="#6F52B8" stroke-width="6.8"/>
      <path d="M24 87 C28 69 37 62 50 62 C65 62 74 70 78 88" stroke="#1C1830" stroke-width="4.8"/>
      <path d="M33 82 C45 78 57 79 69 83" stroke="#DDD5EA" stroke-width="2.0"/>
    </g>
    <g transform="translate(887.0,166.3) scale(1.6379)" fill="none"
       stroke-linecap="round" stroke-linejoin="round">
      <path d="M38 29 C38 18 43 14 51 16 C60 17 64 23 62 31 C61 39 55 43 47 41 C40 39 37 35 38 29 Z" stroke="#1C1830" stroke-width="4.7"/>
      <path d="M15 42 C15 34 19 31 25 32 C32 33 35 38 33 44 C32 50 28 53 22 51 C17 50 14 47 15 42 Z" stroke="#5B5570" stroke-width="3.0"/>
      <path d="M68 42 C68 34 72 31 78 32 C85 33 88 38 86 44 C85 50 81 53 75 51 C70 50 67 47 68 42 Z" stroke="#5B5570" stroke-width="3.8"/>
      <path d="M31 77 C34 58 40 51 50 51 C61 51 68 59 70 78" stroke="#6F52B8" stroke-width="7.2"/>
      <path d="M7 78 C10 62 16 56 25 56 C31 56 36 59 40 65" stroke="#1C1830" stroke-width="3.4"/>
      <path d="M61 65 C66 59 71 56 78 56 C87 56 92 64 94 79" stroke="#1C1830" stroke-width="4.2"/>
      <path d="M18 88 C41 83 63 84 86 89" stroke="#DDD5EA" stroke-width="2.2"/>
    </g>
    <g transform="translate(1251.4,71.3) scale(1.8121)" fill="none"
       stroke-linecap="round" stroke-linejoin="round">
      <path d="M9 22 C25 18 39 21 50 30 L50 82 C38 73 24 70 9 74 Z" stroke="#1C1830" stroke-width="4.4"/>
      <path d="M91 22 C75 18 61 21 50 30 L50 82 C63 73 76 70 91 74 Z" stroke="#1C1830" stroke-width="3.2"/>
      <path d="M18 35 C28 32 37 34 43 38 M18 47 C28 44 36 46 42 50" stroke="#DDD5EA" stroke-width="2.1"/>
      <path d="M58 38 C66 33 75 32 83 34 M58 50 C66 45 75 44 83 46" stroke="#5B5570" stroke-width="2.8"/>
      <path d="M68 21 L68 61 L75 55 L82 62 L82 20" stroke="#6F52B8" stroke-width="6.5"/>
      <path d="M8 82 C27 77 40 80 50 88 C62 80 75 77 93 82" stroke="#C5B8E8" stroke-width="5.1"/>
    </g></svg>