<svg xmlns="http://www.w3.org/2000/svg" width="1920" height="1080" viewBox="0 0 1920 1080" role="img" aria-label="Vahtian rough field-note banner"><defs><filter id="rough" filterUnits="userSpaceOnUse" x="-100" y="-100" width="4000" height="2400"><feTurbulence type="fractalNoise" baseFrequency="0.018" numOctaves="2" seed="34"/><feDisplacementMap in="SourceGraphic" scale="2.8"/></filter></defs><rect width="1920" height="1080" fill="#FAF9FC"/><path d="M0 896.4 C460.8 820.8 1017.6 1036.8 1920.0 777.6 L1920.0 1080.0 L0 1080.0 Z" fill="#F1ECF8"/><g filter="url(#rough)" opacity="0.7" fill="none"><path d="M174.7 260.3 C652.8 294.8 1248.0 225.9 1816.1 262.6" stroke="#DDD5EA" stroke-width="6.48" stroke-dasharray="7.8 27.2"/><path d="M223.5 523.9 C652.8 507.2 1248.0 540.7 1743.7 521.5" stroke="#DDD5EA" stroke-width="6.48" stroke-dasharray="7.8 27.2"/><path d="M116.8 821.3 C652.8 830.8 1248.0 811.7 1717.8 822.9" stroke="#DDD5EA" stroke-width="6.48" stroke-dasharray="7.8 27.2"/></g><g filter="url(#rough)" fill="none" stroke-linecap="round" stroke-linejoin="round"><path d="M153.6 621.0 C748.8 248.4 1132.8 885.6 1804.8 410.4" stroke="#C5B8E8" stroke-width="8.55" opacity="0.78"/><path d="M153.6 583.2 C729.6 216.0 1152.0 842.4 1804.8 378.0" stroke="#6F52B8" stroke-width="18.41" opacity="0.93"/><ellipse cx="691.2" cy="388.8" rx="64.2" ry="59.4" transform="rotate(3.0 691.2 388.8)" stroke="#8B6FC9" stroke-width="6.53"/><ellipse cx="1190.4" cy="680.4" rx="87.5" ry="81.0" transform="rotate(-7.6 1190.4 680.4)" stroke="#8B6FC9" stroke-width="9.74"/><ellipse cx="1612.8" cy="464.4" rx="52.5" ry="48.6" transform="rotate(-8.0 1612.8 464.4)" stroke="#8B6FC9" stroke-width="5.35"/></g>
    <g transform="translate(105.6,151.2) scale(3.1320)" fill="none"
       stroke-linecap="round" stroke-linejoin="round">
      <path d="M18 31 L50 18 L82 31 L50 44 Z" stroke="#1C1830" stroke-width="4.2"/>
      <path d="M28 35 C30 50 39 57 50 57 C62 57 70 49 72 35" stroke="#5B5570" stroke-width="3.1"/>
      <path d="M82 31 C84 42 81 50 76 55" stroke="#6F52B8" stroke-width="6.8"/>
      <path d="M24 87 C28 69 37 62 50 62 C65 62 74 70 78 88" stroke="#1C1830" stroke-width="4.8"/>
      <path d="M33 82 C45 78 57 79 69 83" stroke="#DDD5EA" stroke-width="2.0"/>
    </g>
    <g transform="translate(1459.2,637.2) scale(3.0067)" fill="none"
       stroke-linecap="round" stroke-linejoin="round">
      <path d="M38 29 C38 18 43 14 51 16 C60 17 64 23 62 31 C61 39 55 43 47 41 C40 39 37 35 38 29 Z" stroke="#1C1830" stroke-width="4.7"/>
      <path d="M15 42 C15 34 19 31 25 32 C32 33 35 38 33 44 C32 50 28 53 22 51 C17 50 14 47 15 42 Z" stroke="#5B5570" stroke-width="3.0"/>
      <path d="M68 42 C68 34 72 31 78 32 C85 33 88 38 86 44 C85 50 81 53 75 51 C70 50 67 47 68 42 Z" stroke="#5B5570" stroke-width="3.8"/>
      <path d="M31 77 C34 58 40 51 50 51 C61 51 68 59 70 78" stroke="#6F52B8" stroke-width="7.2"/>
      <path d="M7 78 C10 62 16 56 25 56 C31 56 36 59 40 65" stroke="#1C1830" stroke-width="3.4"/>
      <path d="M61 65 C66 59 71 56 78 56 C87 56 92 64 94 79" stroke="#1C1830" stroke-width="4.2"/>
      <path d="M18 88 C41 83 63 84 86 89" stroke="#DDD5EA" stroke-width="2.2"/>
    </g>
    <g transform="translate(1536.0,86.4) scale(3.3199)" fill="none"
       stroke-linecap="round" stroke-linejoin="round">
      <path d="M9 22 C25 18 39 21 50 30 L50 82 C38 73 24 70 9 74 Z" stroke="#1C1830" stroke-width="4.4"/>
      <path d="M91 22 C75 18 61 21 50 30 L50 82 C63 73 76 70 91 74 Z" stroke="#1C1830" stroke-width="3.2"/>
      <path d="M18 35 C28 32 37 34 43 38 M18 47 C28 44 36 46 42 50" stroke="#DDD5EA" stroke-width="2.1"/>
      <path d="M58 38 C66 33 75 32 83 34 M58 50 C66 45 75 44 83 46" stroke="#5B5570" stroke-width="2.8"/>
      <path d="M68 21 L68 61 L75 55 L82 62 L82 20" stroke="#6F52B8" stroke-width="6.5"/>
      <path d="M8 82 C27 77 40 80 50 88 C62 80 75 77 93 82" stroke="#C5B8E8" stroke-width="5.1"/>
    </g></svg>